<?xml version="1.0" encoding="UTF-8"?> <svg xmlns="http://www.w3.org/2000/svg" width="123.593" height="35.834" viewBox="0 0 123.593 35.834"><g id="Сгруппировать_50" data-name="Сгруппировать 50" transform="translate(-2193.416 -7736.086)"><g id="Сгруппировать_45" data-name="Сгруппировать 45"><path id="LetterA" d="M2193.416,7762.413l12.432-26.327h3.657l12.433,26.327h-5.12l-9.141-19.746-5.485,12.067h8.41l1.828,3.657h-12.066l-1.829,4.022Z" fill="#bd0006"></path></g><g id="Сгруппировать_46" data-name="Сгруппировать 46"><path id="LetterV" d="M2217.184,7736.086l12.432,26.327h3.657l12.432-26.327h-5.119l-9.141,20.111-9.142-20.111Z" fill="#bd0006"></path></g><g id="Сгруппировать_47" data-name="Сгруппировать 47"><path id="LetterA-2" data-name="LetterA" d="M2240.586,7762.413l12.433-26.327h3.656l12.433,26.327h-5.12l-9.141-19.746-5.485,12.067h8.41l1.828,3.657h-12.066l-1.829,4.022Z" fill="#bd0006"></path></g><g id="Сгруппировать_48" data-name="Сгруппировать 48"><path id="LetterY" d="M2265.085,7736.086l10.97,25.961-4.753,9.873h5.119l17.186-35.834h-5.485l-9.507,20.477-8.045-20.477Z" fill="#bd0006"></path></g><g id="Сгруппировать_49" data-name="Сгруппировать 49"><path id="LetterA-3" data-name="LetterA" d="M2288.487,7762.413l12.433-26.327h3.657l12.432,26.327h-5.119l-9.142-19.746-5.485,12.067h8.41l1.829,3.657h-12.067l-1.828,4.022Z" fill="#bd0006"></path></g></g></svg> 