<?xml version="1.0" encoding="UTF-8"?> <svg xmlns="http://www.w3.org/2000/svg" viewBox="0 0 119.22 119.22"><defs><style>.cls-1{fill:#4aa7ff;}.cls-2{fill:none;stroke:#fff;stroke-linecap:round;stroke-linejoin:round;stroke-width:1.5px;}</style></defs><g id="_1680" data-name="1680"><g id="Section_2-3" data-name="Section 2"><rect class="cls-1" x="11.48" y="11.48" width="96.27" height="96.27" rx="20"></rect><path class="cls-2" d="M38.48,91.35a31.75,31.75,0,0,1,7.82-1.13H68.5a12.56,12.56,0,0,0,7.8-2.37c4.16-3.22,9.42-8.33,13.86-11.6.78-.57,1.85-1.33,1.88-2.11.06-1.43-2.15-3.2-4.42-3.5a6.84,6.84,0,0,0-4.87,1.17,98.88,98.88,0,0,0-10,7.36H53.32"></path><path class="cls-2" d="M69.05,79.07V77.13a5.33,5.33,0,0,0-5-5.3c-4.23-.55-12.09-1.16-17.78-1.89a12.65,12.65,0,0,0-7.94,1.76c-.87.57-1.82,1.14-2.81,1.69-1.55.86-8.33,6.11-8.33,6.11"></path><path class="cls-2" d="M66.22,53H82.07a2.59,2.59,0,0,0,2.59-2.59V43.15a4.89,4.89,0,0,0-4.93-4.65H39.49a4.89,4.89,0,0,0-4.93,4.65v7.21A2.59,2.59,0,0,0,37.15,53H53"></path><polyline class="cls-2" points="82.3 72.12 82.3 71.45 82.3 52.95 68.29 52.95 66.22 52.95"></polyline><polyline class="cls-2" points="53.01 52.95 50.93 52.95 36.93 52.95 36.93 71.45"></polyline><polyline class="cls-2" points="66.22 72.12 66.22 38.5 53 38.5 53 69.86"></polyline><path class="cls-2" d="M59.61,38.36a50.9,50.9,0,0,0-6.78-8.92,5.45,5.45,0,0,0-7.71,7.71,6.32,6.32,0,0,0,1.51,1.18"></path><path class="cls-2" d="M59.61,38.36a50.9,50.9,0,0,1,6.78-8.92,5.46,5.46,0,0,1,7.72,7.71,6.73,6.73,0,0,1-1.48,1.16"></path></g></g></svg> 