<?xml version="1.0" encoding="UTF-8"?> <svg xmlns="http://www.w3.org/2000/svg" viewBox="0 0 114.05 106.08"><defs><style>.cls-1{fill:#4aa7ff;}.cls-2{fill:#fff;}</style></defs><g id="_1680" data-name="1680"><g id="Section_1-3" data-name="Section 1"><rect class="cls-1" x="8.93" y="4.95" width="96.19" height="96.19" rx="20"></rect><path class="cls-2" d="M63.34,66.86,51.43,62.65a1.05,1.05,0,0,0-1.34.65,1,1,0,0,0,.64,1.34l11.91,4.2a.89.89,0,0,0,.35.06,1.06,1.06,0,0,0,1-.7A1.05,1.05,0,0,0,63.34,66.86Z"></path><path class="cls-2" d="M50.73,58.2l11.91,4.2a1.12,1.12,0,0,0,.35.06,1.05,1.05,0,0,0,.35-2.05l-11.91-4.2a1.05,1.05,0,0,0-.7,2Z"></path><path class="cls-2" d="M63.34,54l-11.91-4.2a1,1,0,0,0-1.34.64,1.05,1.05,0,0,0,.64,1.35L62.64,56A1.12,1.12,0,0,0,63,56,1.05,1.05,0,0,0,63.34,54Z"></path><path class="cls-2" d="M50.73,45.32l11.91,4.2a1.12,1.12,0,0,0,.35.06,1.05,1.05,0,0,0,.35-2l-11.91-4.2a1,1,0,0,0-1.34.64A1.06,1.06,0,0,0,50.73,45.32Z"></path><path class="cls-2" d="M50.73,38.87l11.91,4.2a.89.89,0,0,0,.35.06,1.06,1.06,0,0,0,1-.7,1.05,1.05,0,0,0-.65-1.34l-11.91-4.2a1.05,1.05,0,0,0-.7,2Z"></path><path class="cls-2" d="M26.36,69.23a.94.94,0,0,0,.37-.07L39,64.49a1,1,0,0,0,.68-1V48.68a1.06,1.06,0,0,0-1.43-1L26,52.36a1.07,1.07,0,0,0-.67,1V68.18a1.07,1.07,0,0,0,.45.87A1.08,1.08,0,0,0,26.36,69.23Zm1.05-15.16,10.13-3.86V62.78L27.41,66.65Z"></path><path class="cls-2" d="M36.78,69.35l-9.1,3.48a1.06,1.06,0,0,0,.38,2,1.27,1.27,0,0,0,.38-.07l9.09-3.48A1.05,1.05,0,0,0,38.14,70,1.07,1.07,0,0,0,36.78,69.35Z"></path><path class="cls-2" d="M28.06,38.27a1,1,0,0,0,.38-.07l9.09-3.48a1,1,0,1,0-.75-2l-9.1,3.47a1.06,1.06,0,0,0,.38,2Z"></path><path class="cls-2" d="M27.93,43A1,1,0,0,0,28.3,43l9.1-3.47a1.05,1.05,0,0,0-.75-2L27.55,41a1.06,1.06,0,0,0,.38,2Z"></path><path class="cls-2" d="M94.81,22.21a1.05,1.05,0,0,0-.44-.86,1,1,0,0,0-1-.14l-23.62,8a1.32,1.32,0,0,0-.29-.15l-24.38-8.6a1.22,1.22,0,0,0-.26,0l-.16,0-.14,0a.9.9,0,0,0-.28,0L19.91,29.77a1,1,0,0,0-.68,1V84.62a1.07,1.07,0,0,0,1.05,1.06,1,1,0,0,0,.38-.07l23.66-9a.6.6,0,0,0,.11.06l24.38,8.61h0a1.28,1.28,0,0,0,.27.05h.12a1.09,1.09,0,0,0,.26-.05h0l24.6-8.32a1.05,1.05,0,0,0,.71-1ZM43.62,74.59,21.34,83.1V31.47L43.62,23Zm24.49,8.17L45.83,74.89v-52L68.1,30.79v52Zm2.11,0V31.29l22.49-7.62V75.16Z"></path><path class="cls-2" d="M76.88,60.83a1.26,1.26,0,0,0,.33,0l9.18-3.11a1,1,0,0,0,.72-1V37.08a1.05,1.05,0,0,0-1.39-1l-9.18,3.1a1.07,1.07,0,0,0-.71,1V59.78a1,1,0,0,0,.44.85A1,1,0,0,0,76.88,60.83ZM85,38.55V55.92l-7.07,2.39V40.94Z"></path><path class="cls-2" d="M76.88,69.47a1.06,1.06,0,0,0,.34-.06l9.17-3.1A1.06,1.06,0,0,0,87.05,65a1,1,0,0,0-1.33-.66l-9.18,3.11a1.05,1.05,0,0,0,.34,2Z"></path><path class="cls-2" d="M85.72,69.71l-9.18,3.1a1.07,1.07,0,0,0-.66,1.34,1.05,1.05,0,0,0,1,.71,1,1,0,0,0,.34,0l9.17-3.11a1,1,0,1,0-.67-2Z"></path></g></g></svg> 