<?xml version="1.0" encoding="UTF-8"?> <svg xmlns="http://www.w3.org/2000/svg" viewBox="0 0 119.22 119.22"><defs><style>.cls-1{fill:#4aa7ff;}.cls-2,.cls-3{fill:#fff;}.cls-2{fill-rule:evenodd;}</style></defs><g id="_1680" data-name="1680"><g id="Section_2-3" data-name="Section 2"><rect class="cls-1" x="11.48" y="11.48" width="96.27" height="96.27" rx="20"></rect><path id="t-shirt" class="cls-2" d="M60.81,40.17l-7.1-5.68a2.85,2.85,0,0,0-1.77-.62H26.39a2.85,2.85,0,0,0-1.77.62l-7.1,5.68a2.82,2.82,0,0,0-.92,3.11l2.84,8.52a2.84,2.84,0,0,0,1.77,1.79,2.91,2.91,0,0,0,.92.15,2.82,2.82,0,0,0,1.42-.38V70.77a2.84,2.84,0,0,0,2.84,2.84H51.94a2.84,2.84,0,0,0,2.84-2.84V53.36a2.82,2.82,0,0,0,1.42.38,2.91,2.91,0,0,0,.92-.15,2.86,2.86,0,0,0,1.77-1.79l2.84-8.52A2.84,2.84,0,0,0,60.81,40.17ZM44.49,36.71a5.79,5.79,0,0,1-5.33,2.84,5.78,5.78,0,0,1-5.32-2.84ZM56.2,50.9l-4.26-2.84V70.77H26.39V48.06L22.13,50.9l-2.84-8.51,7.1-5.68h5.93c.79,2.44,3.54,4.26,6.84,4.26s6.06-1.82,6.85-4.26h5.93L59,42.39Z"></path><path class="cls-3" d="M96.35,57.84H91.76V54.17a1.83,1.83,0,0,0-1.83-1.83H64.25a1.83,1.83,0,0,0-1.83,1.83V81.68a3.66,3.66,0,0,0,3.66,3.67h22a3.67,3.67,0,0,0,3.67-3.67V78h4.59a6.43,6.43,0,0,0,6.41-6.42V64.26A6.43,6.43,0,0,0,96.35,57.84Zm-4.59,5.5h4.59a.92.92,0,0,1,.91.92v7.33a.92.92,0,0,1-.91.92H91.76ZM89.93,81.68a1.85,1.85,0,0,1-1.84,1.84h-22a1.84,1.84,0,0,1-1.83-1.84V54.17H89.93Zm11-10.09a4.59,4.59,0,0,1-4.58,4.59H91.76V74.35h4.59a2.76,2.76,0,0,0,2.75-2.76V64.26a2.75,2.75,0,0,0-2.75-2.75H91.76V59.67h4.59a4.59,4.59,0,0,1,4.58,4.59Z"></path><path class="cls-3" d="M77.09,48.67a.92.92,0,0,0,.91-.92v-5.5a.92.92,0,1,0-1.83,0v5.5A.92.92,0,0,0,77.09,48.67Z"></path><path class="cls-3" d="M82.59,48.67a.92.92,0,0,0,.92-.92V44.08a.92.92,0,0,0-1.84,0v3.67A.92.92,0,0,0,82.59,48.67Z"></path><path class="cls-3" d="M71.59,48.67a.92.92,0,0,0,.91-.92V44.08a.92.92,0,0,0-1.83,0v3.67A.92.92,0,0,0,71.59,48.67Z"></path></g></g></svg> 