<?xml version="1.0" encoding="UTF-8"?> <svg xmlns="http://www.w3.org/2000/svg" viewBox="0 0 33 33"><defs><style>.cls-1,.cls-2{fill:#e9c231;}.cls-2{fill-rule:evenodd;}</style></defs><g id="_1680" data-name="1680"><g id="Menu_Navigation-3" data-name="Menu/Navigation"><path class="cls-1" d="M16.5,1.7A14.69,14.69,0,0,0,1.93,16.5,14.69,14.69,0,0,0,16.5,31.3,14.69,14.69,0,0,0,31.07,16.5,14.69,14.69,0,0,0,16.5,1.7ZM16.5,29A12.39,12.39,0,0,1,4.21,16.5,12.39,12.39,0,0,1,16.5,4,12.39,12.39,0,0,1,28.79,16.5,12.39,12.39,0,0,1,16.5,29Z"></path><path class="cls-2" d="M20,14.23H17.42V12.36c0-.58.59-.71.86-.71h1.64V9.11H18a2.9,2.9,0,0,0-3.14,3.1v2H13v2.62H14.9v7h2.52v-7h2.15Z"></path></g></g></svg> 