<?xml version="1.0" encoding="UTF-8"?> <svg xmlns="http://www.w3.org/2000/svg" viewBox="0 0 114.05 106.08"><defs><style>.cls-1{fill:#4aa7ff;}.cls-2,.cls-3{fill:none;stroke:#fff;stroke-linecap:round;stroke-linejoin:round;}.cls-2{stroke-width:2.06px;}.cls-3{stroke-width:1.86px;}</style></defs><g id="_1680" data-name="1680"><g id="Section_1-3" data-name="Section 1"><rect class="cls-1" x="8.93" y="4.95" width="96.19" height="96.19" rx="20"></rect><rect class="cls-2" x="52.63" y="73.19" width="8.79" height="8.44"></rect><line class="cls-2" x1="68.57" y1="81.63" x2="45.49" y2="81.63"></line><rect class="cls-2" x="22.88" y="24.46" width="68.3" height="48.73" rx="4.68"></rect><line class="cls-2" x1="91.17" y1="65.74" x2="22.88" y2="65.74"></line><path class="cls-2" d="M36.65,30.75h3.92a3.31,3.31,0,0,1,3.17,2.36l5.1,17.07a2,2,0,0,0,1.92,1.43H65.58"></path><polyline class="cls-2" points="48.66 36.08 67.67 36.08 64.46 46.73 48.22 46.73"></polyline><path class="cls-3" d="M53.23,57.08a2.51,2.51,0,1,1-2.5-2.51A2.5,2.5,0,0,1,53.23,57.08Z"></path><path class="cls-3" d="M65.86,57.08a2.51,2.51,0,1,1-2.51-2.51A2.5,2.5,0,0,1,65.86,57.08Z"></path></g></g></svg> 