<?xml version="1.0" encoding="UTF-8"?> <svg xmlns="http://www.w3.org/2000/svg" viewBox="0 0 119.22 119.22"><defs><style>.cls-1{fill:#4aa7ff;}.cls-2{fill:none;stroke:#fff;stroke-linecap:round;stroke-linejoin:round;stroke-width:1.5px;}</style></defs><g id="_1680" data-name="1680"><g id="Section_2-3" data-name="Section 2"><rect class="cls-1" x="11.48" y="11.48" width="96.27" height="96.27" rx="20"></rect><path class="cls-2" d="M37.91,90.78a6,6,0,0,1-6-5.7V59.29l-1.09-.53A3.15,3.15,0,0,1,29,55.92V47.1a6,6,0,0,1,6-5.7h7.58l-1.7-2.92a6.81,6.81,0,0,1,1-8.13,6.8,6.8,0,0,1,9.45,0A56.26,56.26,0,0,1,58,38.66l1.62,2.43,1.62-2.43a56.26,56.26,0,0,1,6.65-8.31,6.8,6.8,0,0,1,9.45,0,6.81,6.81,0,0,1,1,8.13l-1.7,2.92h7.58a6,6,0,0,1,6,5.7v8.82a3.17,3.17,0,0,1-1.8,2.84l-1.08.53V85.08a5.45,5.45,0,0,1-1.84,4,6.28,6.28,0,0,1-4.2,1.67Zm29.79,0H81.31a5.92,5.92,0,0,0,6-5.66v-26H67.7Zm-16.14,0h16.1V41.44H51.56ZM31.92,85.08a5.91,5.91,0,0,0,6,5.66H51.52V59.1H31.92Zm35.78-26H87.05a3.15,3.15,0,0,0,3.14-3.14V47.1a5.92,5.92,0,0,0-6-5.66H67.7ZM35,41.44a5.92,5.92,0,0,0-6,5.66v8.82a3.15,3.15,0,0,0,3.14,3.14H51.52V41.44Zm40.06,0,.44-.23a8.12,8.12,0,0,0,1.78-1.4,6.74,6.74,0,0,0,0-9.39,6.73,6.73,0,0,0-9.4,0,56.92,56.92,0,0,0-6.43,8l-1.87,2.76-1.87-2.76a56.32,56.32,0,0,0-6.43-8,6.7,6.7,0,0,0-9.39,0,6.73,6.73,0,0,0,0,9.39,8.08,8.08,0,0,0,1.79,1.4l.43.23h31Z"></path></g></g></svg> 