<?xml version="1.0" encoding="UTF-8"?> <svg xmlns="http://www.w3.org/2000/svg" viewBox="0 0 114.05 106.08"><defs><style>.cls-1{fill:#4aa7ff;}.cls-2{fill:#fff;stroke:#fff;stroke-miterlimit:10;stroke-width:0.5px;}</style></defs><g id="_1680" data-name="1680"><g id="Section_1-3" data-name="Section 1"><rect class="cls-1" x="8.93" y="4.95" width="96.19" height="96.19" rx="20"></rect><path class="cls-2" d="M67.5,79.56h-.22A5.62,5.62,0,0,1,63.56,78L42.12,56.5a5.54,5.54,0,0,1-1.61-3.71A5,5,0,0,1,42,49l12.2-12.21-.06-.22a3.33,3.33,0,0,1-.16-1,3.41,3.41,0,0,1,1-2.43l4.35-4.36a5.57,5.57,0,0,1,7.53.17l2.23,2.23.2-.59a6,6,0,0,1,1.39-2.3,5.81,5.81,0,0,1,4.17-1.77,6,6,0,0,1,5.89,5.89,40.41,40.41,0,0,1-.77,7.27l-.11.57.56-.11a40.43,40.43,0,0,1,7.28-.77,6,6,0,0,1,5.89,5.89,5.82,5.82,0,0,1-1.78,4.17,5.91,5.91,0,0,1-2.29,1.38l-.6.2,2.24,2.24A5.58,5.58,0,0,1,92.72,57a5,5,0,0,1-1.44,3.81l-4.35,4.36a3.43,3.43,0,0,1-2.44,1,3.37,3.37,0,0,1-1-.16l-.22-.07L71.09,78.12A5,5,0,0,1,67.5,79.56Zm-8.06-9.22,5.87,5.87a3.06,3.06,0,0,0,4,.17l12-12-8-8Zm-8-8L57.7,68.6,80.34,46l-6.23-6.24ZM75.1,54.69l8.7,8.7a1,1,0,0,0,1.38,0L89.54,59a2.62,2.62,0,0,0,.72-2A3.09,3.09,0,0,0,89.37,55L82.09,47.7Zm-31.41-4a2.63,2.63,0,0,0-.72,2,3.14,3.14,0,0,0,.89,2.07l5.86,5.86L63.64,46.71l-8-8ZM86.4,48.53l.1,0a4.58,4.58,0,0,0,1.16.12,3.44,3.44,0,0,0,2.38-1,3.38,3.38,0,0,0,1-2.41,3.47,3.47,0,0,0-3.42-3.43,36.13,36.13,0,0,0-6.43.66l-.73.14ZM62.89,29.81a2.58,2.58,0,0,0-1.85.71l-4.36,4.36a1,1,0,0,0-.29.69.93.93,0,0,0,.29.69l8.7,8.7,7-7-7.28-7.29A3.11,3.11,0,0,0,62.89,29.81Zm8.64,3.85,5.91,5.91.13-.73a36.22,36.22,0,0,0,.66-6.43A3.47,3.47,0,0,0,74.81,29a3.39,3.39,0,0,0-2.42,1,3.44,3.44,0,0,0-1,2.39,4.89,4.89,0,0,0,.11,1.15Z"></path><path class="cls-2" d="M48.71,32.55H30.49a1.22,1.22,0,1,1,0-2.43l18.22,0h0a1.23,1.23,0,0,1,1.22,1.22A1.25,1.25,0,0,1,48.71,32.55Z"></path><path class="cls-2" d="M35.89,46.39H21.72a1.22,1.22,0,0,1,0-2.43l14.17,0h0a1.23,1.23,0,0,1,1.22,1.22A1.25,1.25,0,0,1,35.89,46.39Z"></path><path class="cls-2" d="M36.6,63H28.31a1.22,1.22,0,0,1,0-2.44l8.3,0a1.16,1.16,0,0,1,.86.36,1.2,1.2,0,0,1,.36.86A1.24,1.24,0,0,1,36.6,63Z"></path><path class="cls-2" d="M51.71,76.82H29.12A1.22,1.22,0,0,1,27.9,75.6a1.21,1.21,0,0,1,1.22-1.21l22.59,0h0a1.21,1.21,0,0,1,1.21,1.22A1.24,1.24,0,0,1,51.71,76.82Z"></path></g></g></svg> 