<svg xmlns="http://www.w3.org/2000/svg" viewBox="0 0 58.72 58.72"><defs><style>.cls-1{fill:#4aa7ff;}</style></defs><g id="_1680" data-name="1680"><g id="Menu_Navigation-3" data-name="Menu/Navigation"><path class="cls-1" d="M28.41,39.72l.11.07.12.07.07,0h0l.13,0L29,40a.61.61,0,0,0,.13,0h.11a.33.33,0,0,0,.14,0,.4.4,0,0,0,.11,0l.14,0h.11l.13,0,.11,0H30l.08,0,.1-.05.12-.08.09-.06.11-.1.05,0,8-8a1.71,1.71,0,1,0-2.42-2.41l-5.09,5.08V18.35a1.7,1.7,0,0,0-.75-1.42,1.66,1.66,0,0,0-1-.3,1.72,1.72,0,0,0-1.71,1.72h0V34.18L22.57,29.1a1.71,1.71,0,0,0-2.42,0,1.7,1.7,0,0,0,0,2.41l8,8,.05,0a.47.47,0,0,0,.12.09Z"/><path class="cls-1" d="M49.51,29.36A20.15,20.15,0,1,0,29.36,49.51,20.15,20.15,0,0,0,49.51,29.36Zm-37.35,0a17.2,17.2,0,1,1,17.2,17.21A17.22,17.22,0,0,1,12.16,29.36Z"/></g></g></svg>