<?xml version="1.0" encoding="UTF-8"?> <svg xmlns="http://www.w3.org/2000/svg" xmlns:xlink="http://www.w3.org/1999/xlink" viewBox="0 0 114.05 106.08"><defs><style>.cls-1{fill:none;stroke:#fff;stroke-linecap:round;stroke-linejoin:round;stroke-width:2px;}.cls-2{fill:#4aa7ff;}.cls-3{clip-path:url(#clip-path);}</style><clipPath id="clip-path"><path class="cls-1" d="M58.05,37.68,41.66,54.07,24.25,36.65a2.9,2.9,0,0,1,0-4.1L36.54,20.26a2.9,2.9,0,0,1,4.1,0ZM89.81,69.43,72.39,52,56,68.41,73.42,85.82a2.89,2.89,0,0,0,4.09,0l12.3-12.29A2.9,2.9,0,0,0,89.81,69.43Z"></path></clipPath></defs><g id="_1680" data-name="1680"><g id="Section_1-3" data-name="Section 1"><rect class="cls-2" x="8.93" y="4.95" width="96.19" height="96.19" rx="20"></rect><rect class="cls-1" x="35.17" y="42.19" width="45.12" height="20.28" transform="translate(-20.1 56.15) rotate(-45)"></rect><path class="cls-1" d="M44.85,79.56l-2,2a5.81,5.81,0,0,1-8.2,0l-6.15-6.14a5.82,5.82,0,0,1,0-8.2l2.05-2.05Z"></path><rect class="cls-1" x="29.59" y="67.44" width="20.28" height="5.79" transform="translate(61.37 -7.49) rotate(45)"></rect><path class="cls-1" d="M85.46,22.84,66.51,29.21,80.85,43.55l6.38-18.94A1.45,1.45,0,0,0,85.46,22.84ZM77.32,26l6.78,6.78Z"></path><g class="cls-3"><rect class="cls-1" x="45.44" y="15.37" width="23.18" height="75.33" rx="2" transform="translate(-20.8 55.86) rotate(-45)"></rect><rect class="cls-1" x="26.65" y="36.58" width="11.59" height="0.14" transform="translate(-16.41 33.67) rotate(-45)"></rect><rect class="cls-1" x="31.59" y="42.72" width="5.79" height="0.14" transform="translate(-20.16 36.96) rotate(-45.04)"></rect><rect class="cls-1" x="35.69" y="46.82" width="5.8" height="0.14" transform="translate(-21.86 41.02) rotate(-45)"></rect><rect class="cls-1" x="43.89" y="55.02" width="5.79" height="0.14" transform="translate(-25.25 49.22) rotate(-45)"></rect><rect class="cls-1" x="47.13" y="57.07" width="11.59" height="0.14" transform="translate(-24.9 54.16) rotate(-45)"></rect><rect class="cls-1" x="52.08" y="63.21" width="5.79" height="0.14" transform="translate(-28.65 57.41) rotate(-45)"></rect><rect class="cls-1" x="60.28" y="71.41" width="5.8" height="0.14" transform="translate(-32.04 65.54) rotate(-44.96)"></rect><rect class="cls-1" x="64.37" y="75.51" width="5.8" height="0.14" transform="translate(-33.73 69.63) rotate(-44.96)"></rect><rect class="cls-1" x="67.62" y="77.55" width="11.59" height="0.14" transform="translate(-33.39 74.65) rotate(-45)"></rect></g><path class="cls-1" d="M58.05,37.68,41.66,54.07,24.25,36.65a2.9,2.9,0,0,1,0-4.1L36.54,20.26a2.9,2.9,0,0,1,4.1,0ZM89.81,69.43,72.39,52,56,68.41,73.42,85.82a2.89,2.89,0,0,0,4.09,0l12.3-12.29A2.9,2.9,0,0,0,89.81,69.43Z"></path></g></g></svg> 