<?xml version="1.0" encoding="UTF-8"?> <svg xmlns="http://www.w3.org/2000/svg" viewBox="0 0 33 33"><defs><style>.cls-1{fill:#e9c231;}</style></defs><g id="_1680" data-name="1680"><g id="Menu_Navigation-3" data-name="Menu/Navigation"><path class="cls-1" d="M16.5,1.7A14.69,14.69,0,0,0,1.93,16.5,14.69,14.69,0,0,0,16.5,31.3,14.69,14.69,0,0,0,31.07,16.5,14.69,14.69,0,0,0,16.5,1.7ZM16.5,29A12.39,12.39,0,0,1,4.21,16.5,12.39,12.39,0,0,1,16.5,4,12.39,12.39,0,0,1,28.79,16.5,12.39,12.39,0,0,1,16.5,29Z"></path><path class="cls-1" d="M16.84,9.1c-4,0-6,2.9-6,5.31a3.3,3.3,0,0,0,1.72,3.25.3.3,0,0,0,.43-.21c0-.15.13-.53.17-.69a.43.43,0,0,0-.12-.47,2.46,2.46,0,0,1-.56-1.67,4,4,0,0,1,4.14-4.07,3.17,3.17,0,0,1,3.5,3.26c0,2.45-1.07,4.52-2.66,4.52a1.31,1.31,0,0,1-1.33-1.64,18.45,18.45,0,0,0,.74-3,1.13,1.13,0,0,0-1.13-1.27c-.9,0-1.63.94-1.63,2.2a3.25,3.25,0,0,0,.27,1.34l-1.08,4.64a9.44,9.44,0,0,0,0,3.23.11.11,0,0,0,.2.05A9.15,9.15,0,0,0,15,21.07c.11-.37.6-2.33.6-2.33a2.4,2.4,0,0,0,2,1.06c2.7,0,4.54-2.49,4.54-5.83A5.06,5.06,0,0,0,16.84,9.1Z"></path></g></g></svg> 