<?xml version="1.0" encoding="UTF-8"?> <svg xmlns="http://www.w3.org/2000/svg" viewBox="0 0 33 33"><defs><style>.cls-1{fill:#e9c231;}</style></defs><g id="_1680" data-name="1680"><g id="Menu_Navigation-3" data-name="Menu/Navigation"><path class="cls-1" d="M16.5,1.7A14.69,14.69,0,0,0,1.93,16.5,14.69,14.69,0,0,0,16.5,31.3,14.69,14.69,0,0,0,31.07,16.5,14.69,14.69,0,0,0,16.5,1.7ZM16.5,29A12.39,12.39,0,0,1,4.21,16.5,12.39,12.39,0,0,1,16.5,4,12.39,12.39,0,0,1,28.79,16.5,12.39,12.39,0,0,1,16.5,29Z"></path><path class="cls-1" d="M23.79,11.58a5.13,5.13,0,0,1-1.67.52,3.46,3.46,0,0,0,1.25-1.79,4.55,4.55,0,0,1-1.88.73h0a2.85,2.85,0,0,0-2.17-1,3.16,3.16,0,0,0-3,3.29,3.64,3.64,0,0,0,.07.74h0A8.44,8.44,0,0,1,10,10.63,3.48,3.48,0,0,0,10.94,15a1.85,1.85,0,0,1-1.32-.37,3.15,3.15,0,0,0,2.32,3.21,2.11,2.11,0,0,1-1.25.1,2.91,2.91,0,0,0,2.69,2.24,4.69,4.69,0,0,1-4.17,1.36A8.51,8.51,0,0,0,13.92,23c4.85,0,8.61-4.3,8.41-9.61v-.11A5.57,5.57,0,0,0,23.79,11.58Z"></path></g></g></svg> 