<?xml version="1.0" encoding="UTF-8"?> <svg xmlns="http://www.w3.org/2000/svg" viewBox="0 0 114.05 106.08"><defs><style>.cls-1{fill:#4aa7ff;}.cls-2{fill:#fff;}</style></defs><g id="_1680" data-name="1680"><g id="Section_1-3" data-name="Section 1"><rect class="cls-1" x="8.93" y="4.95" width="96.19" height="96.19" rx="20"></rect><path class="cls-2" d="M57,91.38c-20.64,0-37.43-17.2-37.43-38.34S36.38,14.7,57,14.7,94.46,31.9,94.46,53,77.67,91.38,57,91.38Zm0-74.32C37.68,17.06,22,33.2,22,53S37.68,89,57,89,92.1,72.88,92.1,53,76.37,17.06,57,17.06Z"></path><path class="cls-2" d="M57,91.38C46.2,91.38,37.72,74.54,37.72,53S46.2,14.7,57,14.7,76.33,31.54,76.33,53,67.85,91.38,57,91.38Zm0-74.32c-9.19,0-17,16.48-17,36s7.76,36,17,36S74,72.54,74,53,66.21,17.06,57,17.06Z"></path><path class="cls-2" d="M57,35.64c-10.5,0-20.57-2.31-27.62-6.35l1.18-2.05c6.7,3.84,16.33,6,26.44,6s19.73-2.2,26.44-6l1.17,2C77.59,33.33,67.52,35.64,57,35.64Z"></path><path class="cls-2" d="M83.48,78.84c-6.71-3.84-16.35-6-26.46-6s-19.73,2.2-26.43,6l-1.17-2c7-4,17.11-6.35,27.6-6.35S77.6,72.76,84.65,76.8Z"></path><rect class="cls-2" x="20.77" y="51.86" width="72.51" height="2.36"></rect><rect class="cls-2" x="55.85" y="15.88" width="2.36" height="74.31"></rect><path class="cls-2" d="M44.76,53a5.87,5.87,0,1,1-5.86-6,5.93,5.93,0,0,1,5.86,6"></path><path class="cls-2" d="M38.9,60.23a7.19,7.19,0,1,1,7-7.19A7.12,7.12,0,0,1,38.9,60.23Zm0-12A4.83,4.83,0,1,0,43.59,53,4.77,4.77,0,0,0,38.9,48.21Z"></path><path class="cls-2" d="M78.06,73.32a5.87,5.87,0,1,1-5.86-6,5.93,5.93,0,0,1,5.86,6"></path><path class="cls-2" d="M72.2,80.51a7.19,7.19,0,1,1,7-7.19A7.13,7.13,0,0,1,72.2,80.51Zm0-12a4.83,4.83,0,1,0,4.68,4.83A4.76,4.76,0,0,0,72.2,68.49Z"></path><path class="cls-2" d="M62.9,34.46a5.87,5.87,0,1,1-5.87-6,5.94,5.94,0,0,1,5.87,6"></path><path class="cls-2" d="M57,41.65a7.19,7.19,0,1,1,7-7.19A7.12,7.12,0,0,1,57,41.65Zm0-12a4.83,4.83,0,1,0,4.69,4.83A4.77,4.77,0,0,0,57,29.63Z"></path></g></g></svg> 