<?xml version="1.0" encoding="UTF-8"?> <svg xmlns="http://www.w3.org/2000/svg" viewBox="0 0 33 33"><defs><style>.cls-1,.cls-2{fill:#e9c231;}.cls-2{fill-rule:evenodd;}</style></defs><g id="_1680" data-name="1680"><g id="Menu_Navigation-3" data-name="Menu/Navigation"><path class="cls-1" d="M16.5,1.7A14.69,14.69,0,0,0,1.93,16.5,14.69,14.69,0,0,0,16.5,31.3,14.69,14.69,0,0,0,31.07,16.5,14.69,14.69,0,0,0,16.5,1.7ZM16.5,29A12.39,12.39,0,0,1,4.21,16.5,12.39,12.39,0,0,1,16.5,4,12.39,12.39,0,0,1,28.79,16.5,12.39,12.39,0,0,1,16.5,29Z"></path><path class="cls-2" d="M9.22,23.89H12V12.79H9.22Zm10.93-11.1a5,5,0,0,0-3.64,1.85V12.79H13.77v11.1h2.74V17.42a2.32,2.32,0,0,1,2.73-1.85c1.16.08,1.78,1.63,1.82,1.85v6.47l2.72,0V16.22A3.44,3.44,0,0,0,20.15,12.79Zm-9.56-3.7A1.39,1.39,0,1,0,12,10.48,1.38,1.38,0,0,0,10.59,9.09Z"></path></g></g></svg> 