<?xml version="1.0" encoding="UTF-8"?> <svg xmlns="http://www.w3.org/2000/svg" viewBox="0 0 114.05 106.08"><defs><style>.cls-1{fill:#4aa7ff;}.cls-2{fill:#fff;}</style></defs><g id="_1680" data-name="1680"><g id="Section_1-3" data-name="Section 1"><rect class="cls-1" x="8.93" y="4.95" width="96.19" height="96.19" rx="20"></rect><path class="cls-2" d="M57,55.46a1.53,1.53,0,0,0,1.23-.64c1.42-2,13.89-19.48,13.89-27.26a15.13,15.13,0,0,0-30.25,0c0,7.78,12.47,25.29,13.89,27.26A1.54,1.54,0,0,0,57,55.46Zm-5.52-28A5.52,5.52,0,1,1,57,32.94,5.53,5.53,0,0,1,51.51,27.42Z"></path><path class="cls-2" d="M83.67,81.08a34.49,34.49,0,0,0,.22-43.74A1.64,1.64,0,0,0,83.6,37a34.66,34.66,0,0,0-6.92-6.36,1.9,1.9,0,1,0-2.17,3.12,31.23,31.23,0,0,1,4.62,3.93,55.41,55.41,0,0,1-8.83,2.69,1.9,1.9,0,0,0,.4,3.76,1.83,1.83,0,0,0,.4-.05,56.62,56.62,0,0,0,10.6-3.37,30.8,30.8,0,0,1,6,16.47H70a67.93,67.93,0,0,0-.59-7.87,1.9,1.9,0,0,0-3.77.51,63.55,63.55,0,0,1,.56,7.36H46.74a66.44,66.44,0,0,1,.9-9.66,1.9,1.9,0,1,0-3.74-.64,68.34,68.34,0,0,0-1,10.3H26.32A30.68,30.68,0,0,1,32.13,41a58.74,58.74,0,0,0,10.72,3.25,1.58,1.58,0,0,0,.38,0,1.9,1.9,0,0,0,.37-3.77,56.4,56.4,0,0,1-8.92-2.58A31,31,0,0,1,40,33.43a1.9,1.9,0,0,0-2.1-3.17,34.82,34.82,0,0,0-7.57,6.83,1.85,1.85,0,0,0-.65.78s0,.05,0,.08A34.49,34.49,0,0,0,30,80.65a1.69,1.69,0,0,0,.2.25,34.52,34.52,0,0,0,53.3.34ZM57,89.84c-.53,0-1.05,0-1.57,0A44.27,44.27,0,0,1,49.35,77a66.66,66.66,0,0,1,14.21,0,44.49,44.49,0,0,1-6.14,12.91Zm-.44-17.08a69.69,69.69,0,0,0-8.23.49A63.34,63.34,0,0,1,46.76,61H66.14a63.61,63.61,0,0,1-1.59,12.23A71.83,71.83,0,0,0,56.59,72.76ZM26.32,61H43A68.41,68.41,0,0,0,44.59,73.8a59.61,59.61,0,0,0-12.33,3.51A30.53,30.53,0,0,1,26.32,61ZM70,61H87.73a30.64,30.64,0,0,1-6.14,16.61,59,59,0,0,0-13.27-3.84A68.71,68.71,0,0,0,70,61ZM34.84,80.36a56.4,56.4,0,0,1,10.7-2.87,51.71,51.71,0,0,0,5,11.65A30.71,30.71,0,0,1,34.84,80.36Zm27.41,9a51.44,51.44,0,0,0,5.12-12A56.77,56.77,0,0,1,79,80.61,30.73,30.73,0,0,1,62.25,89.39Z"></path></g></g></svg> 